<?xml version="1.0" standalone="no"?>
<!DOCTYPE svg PUBLIC "-//W3C//DTD SVG 20010904//EN"
 "http://www.w3.org/TR/2001/REC-SVG-20010904/DTD/svg10.dtd">
<svg version="1.0" xmlns="http://www.w3.org/2000/svg"
 width="1515.000000pt" height="1515.000000pt" viewBox="0 0 1515.000000 1515.000000"
 preserveAspectRatio="xMidYMid meet">
<metadata>
Created by potrace 1.11, written by Peter Selinger 2001-2013
</metadata>
<g transform="translate(0.000000,1515.000000) scale(0.100000,-0.100000)"
fill="#000000" stroke="none">
<path d="M7482 13929 c-154 -27 -270 -142 -300 -299 -14 -69 -14 -1725 0
-1778 5 -20 10 -44 12 -53 3 -9 13 -34 24 -55 69 -134 209 -208 377 -199 180
9 299 93 357 252 20 57 21 72 22 908 1 468 -2 876 -6 907 -19 144 -127 270
-263 307 -58 16 -162 21 -223 10z"/>
<path d="M12595 11819 c-139 -17 -121 -1 -779 -657 -329 -328 -613 -620 -631
-647 -45 -69 -64 -140 -61 -222 3 -82 19 -132 61 -199 56 -88 162 -162 257
-180 98 -18 220 7 297 61 44 30 1190 1176 1226 1224 66 90 86 225 52 346 -11
41 -56 111 -98 154 -88 89 -208 134 -324 120z"/>
<path d="M2392 11802 c-241 -86 -346 -352 -226 -572 17 -32 224 -245 632 -652
648 -646 653 -650 765 -664 29 -4 58 -8 66 -9 30 -4 118 17 166 40 181 85 276
294 215 474 -11 35 -32 80 -46 100 -21 31 -650 666 -1085 1097 -176 173 -216
196 -349 201 -64 3 -98 -1 -138 -15z"/>
<path d="M7338 10745 c-2 -1 -41 -5 -88 -9 -132 -9 -254 -24 -385 -47 -66 -11
-133 -23 -150 -26 -72 -11 -380 -95 -490 -133 -66 -22 -127 -42 -135 -44 -8
-2 -87 -34 -175 -71 -387 -161 -797 -407 -1105 -664 -104 -87 -115 -96 -180
-156 -281 -260 -502 -517 -707 -825 -177 -264 -287 -475 -438 -835 -51 -120
-151 -438 -180 -571 -2 -10 -13 -60 -24 -111 -12 -51 -23 -109 -27 -130 -11
-74 -15 -98 -19 -113 -2 -8 -6 -40 -10 -71 -3 -31 -7 -66 -9 -76 -3 -11 -7
-60 -11 -109 -3 -49 -8 -114 -11 -144 -4 -44 -8 -566 -5 -632 1 -15 288 -16
4384 -15 l4382 2 0 300 c-1 270 -8 476 -19 545 -3 14 -7 50 -11 81 -3 31 -7
65 -9 75 -2 11 -7 42 -10 69 -38 267 -154 684 -265 950 -161 387 -357 724
-605 1044 -237 307 -534 600 -843 833 -424 321 -904 563 -1413 713 -112 33
-153 44 -239 61 -14 3 -28 7 -31 9 -4 2 -20 7 -36 9 -16 3 -40 8 -54 11 -52
10 -197 35 -240 40 -25 3 -52 7 -60 9 -8 3 -49 7 -90 11 -41 3 -93 9 -115 11
-40 5 -572 13 -577 9z"/>
<path d="M320 6753 c-112 -22 -225 -119 -284 -243 -67 -141 -34 -330 77 -437
23 -23 59 -50 79 -62 90 -50 92 -50 986 -50 517 0 854 4 882 10 166 37 311
190 329 349 20 167 -97 351 -269 421 l-55 22 -844 1 c-614 1 -859 -2 -901 -11z"/>
<path d="M13040 6728 c-139 -68 -279 -250 -282 -364 -4 -188 94 -332 260 -385
66 -20 82 -21 927 -21 770 0 867 1 925 16 136 35 229 129 269 271 3 11 5 65 6
120 0 116 -18 177 -75 252 -36 48 -115 103 -180 125 -26 9 -257 13 -910 15
l-875 2 -65 -31z"/>
<path d="M325 4355 c-69 -15 -147 -60 -204 -116 -90 -89 -127 -183 -118 -301
12 -155 122 -291 282 -350 l60 -21 2220 -1 2220 -1 120 -103 c66 -57 131 -113
145 -126 14 -12 88 -76 165 -141 77 -66 142 -122 145 -125 3 -3 34 -30 70 -60
36 -30 67 -57 70 -60 3 -3 32 -27 65 -55 33 -27 67 -57 75 -65 9 -8 38 -34 65
-57 47 -39 65 -54 125 -106 39 -34 152 -130 179 -152 13 -11 31 -27 40 -35 9
-9 45 -40 81 -70 36 -30 72 -61 81 -70 9 -8 27 -24 40 -35 13 -11 58 -49 99
-84 41 -35 99 -85 129 -110 30 -25 59 -51 65 -56 10 -10 473 -406 525 -450 13
-11 29 -25 35 -30 6 -6 43 -37 81 -70 39 -33 90 -78 116 -100 25 -22 69 -60
98 -85 30 -25 81 -68 115 -97 l60 -52 61 53 c33 29 130 112 215 185 85 73 180
155 210 181 30 27 68 58 84 71 16 12 38 32 50 43 12 12 46 41 76 66 29 25 61
52 70 60 8 8 56 49 105 90 50 41 92 77 95 80 3 4 73 64 155 135 83 70 178 152
211 181 34 30 77 67 96 82 19 15 63 53 99 84 35 31 278 240 539 463 261 224
502 431 535 460 33 29 89 76 125 106 l65 54 2230 1 c2430 0 2269 -3 2370 55
49 28 110 91 136 141 41 81 56 217 34 319 -28 127 -142 242 -274 276 -14 3
-1140 7 -2501 9 l-2476 2 -144 -120 c-80 -66 -165 -137 -190 -158 -42 -36
-273 -227 -314 -260 -10 -8 -54 -45 -98 -82 -43 -37 -95 -80 -116 -95 -20 -16
-44 -35 -52 -44 -8 -9 -107 -92 -220 -185 -113 -93 -207 -171 -210 -174 -3 -3
-140 -118 -305 -255 -165 -137 -309 -257 -320 -267 -11 -9 -94 -78 -185 -154
-91 -75 -180 -150 -198 -166 -19 -17 -38 -26 -45 -22 -6 4 -43 38 -82 74 -38
37 -99 94 -134 126 -35 33 -83 77 -106 99 -42 40 -254 239 -324 304 -20 18
-97 91 -171 161 -74 70 -147 138 -161 151 -44 40 -261 243 -278 260 -9 8 -126
107 -261 219 -135 112 -261 217 -281 234 -19 17 -57 49 -84 71 -27 22 -79 65
-115 95 -36 31 -102 85 -146 122 l-81 65 -2444 0 c-1805 0 -2457 -3 -2494 -12z"/>
</g>
</svg>
